PathFileType	4	(X/Y/Z)	/Users/itak/Documents/Research/Walk-IL/dataset/trc/00286_00010.trc
DataRate	CameraRate	NumFrames	NumMarkers	Units	OrigDataRate	OrigDataStartFrame	OrigNumFrames
100.000000	100.000000	4	54	mm	100.000000	405	648
Frame#	Time	RPSI			LPSI			L3			STRN			T10			C7			CLAV			RBAK			LBAK			LSHO			LUPA			LAEL			LAOL			LWTS			LWPS			LFRA			LIFD			LHPS			LHTS			RSHO			RUPA			RAEL			RAOL			RWTS			RWPS			RFRA			RIFD			RHTS			RHPS			RBHD			LFHD			RFHD			LBHD			LHIP			RASI			LASI			LKNE			LTHI			LANK			LTIP			LTOE			LMT1			LMT5			LHEE			RKNE			RANK			RTIP			RTOE			RMT1			RMT5			RHEE			RHIP			RTHI			*53			
		X1	Y1	Z1	X2	Y2	Z2	X3	Y3	Z3	X4	Y4	Z4	X5	Y5	Z5	X6	Y6	Z6	X7	Y7	Z7	X8	Y8	Z8	X9	Y9	Z9	X10	Y10	Z10	X11	Y11	Z11	X12	Y12	Z12	X13	Y13	Z13	X14	Y14	Z14	X15	Y15	Z15	X16	Y16	Z16	X17	Y17	Z17	X18	Y18	Z18	X19	Y19	Z19	X20	Y20	Z20	X21	Y21	Z21	X22	Y22	Z22	X23	Y23	Z23	X24	Y24	Z24	X25	Y25	Z25	X26	Y26	Z26	X27	Y27	Z27	X28	Y28	Z28	X29	Y29	Z29	X30	Y30	Z30	X31	Y31	Z31	X32	Y32	Z32	X33	Y33	Z33	X34	Y34	Z34	X35	Y35	Z35	X36	Y36	Z36	X37	Y37	Z37	X38	Y38	Z38	X39	Y39	Z39	X40	Y40	Z40	X41	Y41	Z41	X42	Y42	Z42	X43	Y43	Z43	X44	Y44	Z44	X45	Y45	Z45	X46	Y46	Z46	X47	Y47	Z47	X48	Y48	Z48	X49	Y49	Z49	X50	Y50	Z50	X51	Y51	Z51	X52	Y52	Z52	X53	Y53	Z53	X54	Y54	Z54	

406	4.05	449.7286682128906	978.970458984375	-745.6276245117188	464.7884216308594	970.044189453125	-571.5245361328125	454.4574890136719	1049.650390625	-636.8155517578125	202.1532287597656	1225.482177734375	-630.9891357421875	469.2022705078125	1167.146240234375	-621.460693359375	416.8250427246094	1410.223754882812	-600.64697265625	264.518798828125	1323.812744140625	-622.7083129882812	478.4988098144531	1275.550048828125	-674.2618408203125	425.5944213867188	1372.219848632812	-493.6787719726562	330.4064025878906	1376.31201171875	-455.6956787109375	321.0066223144531	1259.217529296875	-383.7286376953125	248.2156829833984	1070.348876953125	-392.5818481445312	325.9593811035156	1031.8876953125	-407.846923828125	115.3534393310547	930.1486206054688	-526.8501586914062	98.35407257080078	900.5745849609375	-462.6656188964844	189.3379058837891	990.0899658203125	-414.5183410644531	11.9177131652832	788.9170532226562	-592.1320190429688	49.02436828613281	834.8668823242188	-497.513916015625	37.84168243408203	870.0930786132812	-551.628173828125	363.7750549316406	1389.134033203125	-764.7398681640625	382.8324279785156	1339.631225585938	-831.7945556640625	468.7501525878906	1094.016723632812	-887.9147338867188	477.3687133789062	1081.970336914062	-793.4774780273438	429.4007263183594	846.02734375	-880.9434814453125	486.1097106933594	864.5521240234375	-940.657958984375	467.3861083984375	1025.815185546875	-910.6741943359375	484.8374328613281	662.41552734375	-898.5481567382812	448.9353332519531	728.2239379882812	-909.390869140625	499.9504699707031	750.3685913085938	-948.5488891601562	383.4835510253906	1563.011596679688	-688.168701171875	227.9571228027344	1603.85986328125	-548.0438842773438	217.1972198486328	1601.477783203125	-640.94482421875	398.7909545898438	1556.14990234375	-542.1885375976562	406.9541015625	918.7376708984375	-470.6075134277344	226.8222198486328	949.2247924804688	-751.0140991210938	263.3924560546875	933.0262451171875	-500.3835754394531	377.0382385253906	462.7880249023438	-567.696533203125	367.4363098144531	599.3733520507812	-518.5082397460938	506.6231384277344	44.78196334838867	-641.1273803710938	441.1150512695312	240.5024871826172	-600.736083984375	329.5906372070312	33.37599182128906	-769.4215698242188	412.5465087890625	27.02471923828125	-780.2814331054688	386.4674682617188	40.93376541137695	-673.6732788085938	568.33349609375	37.13474655151367	-680.7728271484375	130.880615234375	514.6019897460938	-812.0680541992188	54.62150192260742	63.96561813354492	-854.8003540039062	84.19808197021484	399.0228881835938	-808.4397583007812	-76.96826934814453	110.1969757080078	-714.22216796875	-12.46780586242676	85.74527740478516	-706.7232666015625	-44.69190216064453	78.25425720214844	-819.6736450195312	122.6618194580078	45.87692642211914	-838.8077392578125	334.0144348144531	942.6596069335938	-838.082763671875	217.5553588867188	759.5459594726562	-833.213134765625	nan	nan	nan	
407	4.06	438.9241943359375	977.4931640625	-747.4544677734375	456.4202880859375	968.6400756835938	-573.5239868164062	444.9866943359375	1048.052978515625	-638.3131713867188	193.35693359375	1223.27978515625	-629.71728515625	460.2616882324219	1165.496215820312	-622.6122436523438	407.7790222167969	1408.427978515625	-601.4998168945312	255.6421203613281	1321.771118164062	-622.2655029296875	468.994140625	1273.595092773438	-675.1378173828125	417.5433654785156	1370.591674804688	-494.4951782226562	322.600830078125	1374.506469726562	-455.8204345703125	313.796142578125	1257.289794921875	-383.9806823730469	240.0934753417969	1069.166259765625	-392.9793395996094	317.3841857910156	1029.751220703125	-408.2704772949219	104.1583786010742	934.6785278320312	-528.363037109375	86.20768737792969	904.6948852539062	-464.7023315429688	179.7771606445312	990.8777465820312	-415.3490295410156	-2.841904640197754	797.4072875976562	-595.9163818359375	35.10226821899414	840.8695678710938	-500.5800170898438	25.01395416259766	877.2750854492188	-554.08154296875	353.71337890625	1386.979858398438	-765.138671875	372.7673645019531	1337.781005859375	-832.11181640625	462.095458984375	1093.645263671875	-887.8773803710938	470.1915588378906	1081.360107421875	-793.3856811523438	424.6838989257812	845.2730102539062	-881.5512084960938	481.6528930664062	864.2892456054688	-940.9578247070312	461.501220703125	1025.399536132812	-910.7978515625	481.8913269042969	662.1048583984375	-899.052001953125	445.3609924316406	727.6538696289062	-909.748046875	496.0790405273438	750.222412109375	-949.1651000976562	373.8238220214844	1560.819213867188	-689.4263916015625	219.4060668945312	1602.325073242188	-548.2285766601562	207.9313049316406	1599.677734375	-641.0476684570312	390.14208984375	1554.377807617188	-543.5394897460938	400.0902709960938	917.177978515625	-471.7716369628906	216.1296234130859	947.1148681640625	-749.6177368164062	256.1566467285156	931.0501098632812	-499.4124755859375	373.3784790039062	461.6810607910156	-567.3048095703125	362.9211730957031	598.2073974609375	-518.0709228515625	506.6263427734375	44.85940933227539	-641.2805786132812	439.4316711425781	240.0135955810547	-600.6403198242188	329.4829406738281	33.29302215576172	-769.3914794921875	412.4762878417969	27.00172233581543	-780.2725830078125	386.4545288085938	40.88560104370117	-673.68603515625	568.4216918945312	37.47504806518555	-680.9060668945312	121.6287536621094	511.7290954589844	-811.1544799804688	23.80315780639648	63.7800178527832	-844.93603515625	70.92378234863281	398.5448608398438	-805.3614501953125	-100.2322998046875	118.5096054077148	-700.10400390625	-36.42547607421875	91.66173553466797	-694.1036987304688	-73.72386932373047	82.49052429199219	-806.1640014648438	92.29125213623047	44.24963760375977	-831.5560913085938	322.2428894042969	940.802490234375	-838.3760375976562	207.3477935791016	756.8594970703125	-833.3441162109375	nan	nan	nan	
408	4.07	428.187255859375	975.8117065429688	-749.0648803710938	447.9427185058594	967.0523071289062	-575.3082275390625	435.4481811523438	1046.343139648438	-639.7242431640625	184.5042419433594	1220.954833984375	-628.4173583984375	451.2290344238281	1163.742919921875	-623.7573852539062	398.6696472167969	1406.523193359375	-602.3282470703125	246.8430786132812	1319.585205078125	-621.7662353515625	459.411865234375	1271.544921875	-676.0392456054688	409.4480590820312	1368.817260742188	-495.3145751953125	314.7374267578125	1372.493286132812	-455.91552734375	306.6488037109375	1255.11181640625	-384.2204895019531	232.1200866699219	1067.715942382812	-393.3652648925781	309.0042724609375	1027.387451171875	-408.6845092773438	93.55951690673828	938.7052612304688	-529.564208984375	74.48712921142578	908.5174560546875	-466.4109497070312	170.4932403564453	991.3880615234375	-416.0671691894531	-17.16358375549316	805.5867919921875	-599.1180419921875	21.65717887878418	846.597412109375	-503.1560974121094	12.6398811340332	884.0758056640625	-556.0969848632812	343.5489807128906	1384.747314453125	-765.5138549804688	362.5827026367188	1335.815185546875	-832.4177856445312	455.0589294433594	1093.038940429688	-887.7406616210938	462.4422607421875	1080.447998046875	-793.1782836914062	419.4622192382812	844.3436279296875	-882.3410034179688	476.9152526855469	863.8670654296875	-941.224609375	455.2436218261719	1024.799438476562	-910.8700561523438	478.6458129882812	661.6480102539062	-899.5501708984375	441.4874267578125	726.9378662109375	-910.0995483398438	491.9428100585938	749.9267578125	-949.7540893554688	364.1110534667969	1558.562744140625	-690.5849609375	210.814697265625	1600.6728515625	-548.3010864257812	198.6191101074219	1597.795532226562	-641.0225219726562	381.4521789550781	1552.48486328125	-544.7992553710938	392.975830078125	915.4961547851562	-472.75830078125	205.5778656005859	944.8859252929688	-748.2469482421875	248.7378082275391	928.99755859375	-498.4658203125	369.2544860839844	460.5002746582031	-567.0050659179688	357.9617614746094	596.9351806640625	-517.7377319335938	506.63720703125	44.95341491699219	-641.502197265625	437.5231323242188	239.4776000976562	-600.6658935546875	329.3882141113281	33.25826644897461	-769.3823852539062	412.4057922363281	26.98803901672363	-780.30126953125	386.4510498046875	40.83899307250977	-673.7352905273438	568.5219116210938	37.91875457763672	-681.12060546875	112.3080520629883	508.8069458007812	-810.0230102539062	-4.288897514343262	64.13751220703125	-834.960205078125	58.31352996826172	398.0593566894531	-802.2959594726562	-121.8697967529297	126.5608596801758	-687.3580322265625	-58.94155120849609	97.40423583984375	-682.384033203125	-100.1208343505859	86.94745635986328	-793.5934448242188	64.54405975341797	43.4426383972168	-823.6499633789062	310.5860595703125	938.7407836914062	-838.577392578125	197.1646881103516	754.0232543945312	-833.4849853515625	nan	nan	nan	
409	4.08	417.53955078125	973.953857421875	-750.4576416015625	439.3423156738281	965.2967529296875	-576.8658447265625	425.8817443847656	1044.536987304688	-641.0191650390625	175.5686950683594	1218.552734375	-627.0958251953125	442.0877075195312	1161.904296875	-624.8855590820312	389.4983520507812	1404.536376953125	-603.1324462890625	238.1005249023438	1317.297607421875	-621.204345703125	449.7496337890625	1269.430541992188	-676.9692993164062	401.307373046875	1366.931274414062	-496.1375732421875	306.8189697265625	1370.330688476562	-455.9786987304688	299.5544738769531	1252.751586914062	-384.4390258789062	224.3109893798828	1066.031982421875	-393.7095031738281	300.8325805664062	1024.85693359375	-409.1094665527344	83.42646789550781	942.27294921875	-530.462646484375	63.2243537902832	912.0045776367188	-467.7654113769531	161.5028076171875	991.6356811523438	-416.6599426269531	-31.05056381225586	813.3926391601562	-601.7047729492188	8.730692863464355	851.9932861328125	-505.2124938964844	0.7513723373413086	890.4398193359375	-557.6304931640625	333.2750244140625	1382.469116210938	-765.86376953125	352.2624206542969	1333.765014648438	-832.7176513671875	447.5708923339844	1092.19677734375	-887.5309448242188	454.1181335449219	1079.25732421875	-792.8932495117188	413.7496643066406	843.231201171875	-883.2877807617188	471.8444213867188	863.2913208007812	-941.46826171875	448.5447692871094	1024.013793945312	-910.9071655273438	475.1061706542969	661.0455322265625	-900.0333251953125	437.3198547363281	726.076416015625	-910.4360961914062	487.5243225097656	749.486572265625	-950.3148803710938	354.3308410644531	1556.279052734375	-691.6425170898438	202.1740570068359	1598.92724609375	-548.2537841796875	189.2481231689453	1595.849487304688	-640.8631591796875	372.7191162109375	1550.513061523438	-545.9677734375	385.5858459472656	913.7068481445312	-473.5870056152344	195.1728057861328	942.5848388671875	-746.9356689453125	241.107421875	926.8828125	-497.5496826171875	364.6840209960938	459.2492980957031	-566.8164672851562	352.5613098144531	595.5587768554688	-517.5242309570312	506.6568603515625	45.07568359375	-641.8045043945312	435.4076843261719	238.906005859375	-600.8232421875	329.2988891601562	33.25925827026367	-769.3905029296875	412.3309631347656	26.98857307434082	-780.3604125976562	386.4600219726562	40.80255508422852	-673.82568359375	568.6214599609375	38.49077224731445	-681.4354248046875	102.8554153442383	505.9264526367188	-808.6405029296875	-29.40898704528809	64.73525238037109	-825.1303100585938	46.25392913818359	397.4993286132812	-799.2095336914062	-141.9390106201172	134.0132904052734	-676.1759643554688	-79.98683929443359	102.7329025268555	-671.7351684570312	-123.7642059326172	91.28891754150391	-782.2573852539062	39.69381332397461	43.15607070922852	-815.2726440429688	299.0691223144531	936.533935546875	-838.70068359375	186.9431762695312	751.1228637695312	-833.5945434570312	nan	nan	nan	
